<?xml version="1.0" encoding="UTF-8" standalone="no"?>
<!DOCTYPE svg PUBLIC "-//W3C//DTD SVG 1.1//EN" "http://www.w3.org/Graphics/SVG/1.1/DTD/svg11.dtd">
<svg width="100%" height="100%" viewBox="0 0 6666 1500" version="1.1" xmlns="http://www.w3.org/2000/svg" xmlns:xlink="http://www.w3.org/1999/xlink" xml:space="preserve" xmlns:serif="http://www.serif.com/" style="fill-rule:evenodd;clip-rule:evenodd;stroke-linecap:round;stroke-linejoin:round;stroke-miterlimit:1.5;">
    <g transform="matrix(1.81289,0,0,1.81289,4359.41,-609.667)">
        <g transform="matrix(1,0,0,1,73.2533,60.3143)">
            <path d="M747.057,310C528.775,513.593 373.225,775.938 310,1069.37L310,389.2C310,345.489 345.488,310 389.2,310L747.057,310Z" style="fill:white;"/>
        </g>
        <g transform="matrix(1,0,0,1,73.2533,60.3143)">
            <path d="M1064.69,1069.37C855.131,1069.37 685,899.24 685,689.686C685,480.131 855.131,310 1064.69,310L1064.69,1069.37Z" style="fill:white;"/>
        </g>
        <g>
            <g transform="matrix(1.10018,0.190021,-0.155918,0.902738,126.506,-219.905)">
                <path d="M601.782,1129.69L598.439,1061" style="fill:none;stroke:white;stroke-width:35.5px;"/>
            </g>
            <g transform="matrix(1.1151,0.0553753,-0.0454374,0.914977,-9.08981,33.1416)">
                <path d="M601.782,1129.69L598.439,1061" style="fill:none;stroke:white;stroke-width:41.41px;"/>
            </g>
            <g transform="matrix(0.94054,0.339682,-0.294936,0.816643,409.297,-369.783)">
                <path d="M601.782,1129.69L598.439,1061" style="fill:none;stroke:white;stroke-width:32.26px;"/>
            </g>
            <g transform="matrix(0.839622,0.543171,-0.452252,0.699081,698.118,-487.853)">
                <path d="M601.782,1129.69L598.439,1061" style="fill:none;stroke:white;stroke-width:26.27px;"/>
            </g>
            <g transform="matrix(0.737167,0.67571,-0.386838,0.422021,754.108,-354.26)">
                <path d="M601.782,1129.69L598.439,1061" style="fill:none;stroke:white;stroke-width:22.25px;"/>
            </g>
            <g transform="matrix(0.593648,0.804725,-0.349686,0.257964,868.619,-325.675)">
                <path d="M601.782,1129.69L598.439,1061" style="fill:none;stroke:white;stroke-width:15.67px;"/>
            </g>
            <g transform="matrix(0.430754,0.902469,-0.28092,0.134085,955.681,-295.992)">
                <path d="M601.782,1129.69L598.439,1061" style="fill:none;stroke:white;stroke-width:8.16px;"/>
            </g>
        </g>
    </g>
    <g transform="matrix(1.2488,0,0,1.2488,-214.076,4.76627)">
        <text x="355.956px" y="511.296px" style="font-family:'Montserrat-Medium', 'Montserrat';font-weight:500;font-size:588px;fill:white;">ASSURANCE</text>
        <text x="876.336px" y="1111.3px" style="font-family:'Montserrat-Medium', 'Montserrat';font-weight:500;font-size:588px;fill:white;">C<tspan x="1292.64px " y="1111.3px ">O</tspan>NDUITE</text>
    </g>
</svg>
